<?xml version="1.0" encoding="utf-8"?>
<!-- Generator: Adobe Illustrator 23.0.4, SVG Export Plug-In . SVG Version: 6.00 Build 0)  -->
<svg version="1.1" id="Layer_1" xmlns="http://www.w3.org/2000/svg" xmlns:xlink="http://www.w3.org/1999/xlink" x="0px" y="0px"
	 viewBox="0 0 155.8 56.8" style="enable-background:new 0 0 155.8 56.8;" xml:space="preserve">
<style type="text/css">
	.st0{fill-rule:evenodd;clip-rule:evenodd;fill:#5791CD;}
	.st1{fill-rule:evenodd;clip-rule:evenodd;fill:#34A736;}
	.st2{fill-rule:evenodd;clip-rule:evenodd;fill:#1D1D1B;}
</style>
<g>
	<path class="st0" d="M27.1,27.6h-2.8l-5.8-18h-0.1l-5.8,18H9.9L0.1,0.8h5.3l5.9,17.4h0.1l5.5-17.4h3.3l5.5,17.4h0.1l5.8-17.4h5.3
		L27.1,27.6 M59.5,12.5c-0.2-3.9-3.8-7.8-8.6-7.8s-8.3,3.9-8.6,7.8H59.5L59.5,12.5z M42.2,16.3c1.2,5.2,5.4,7.3,8.7,7.3
		c3.7,0,6.4-2.2,7.6-4.5h5c-2.5,6.9-8.6,9.1-12.8,9.1c-7.5,0-13.5-6.5-13.5-14.1c0-8,6.1-14.1,13.6-14.1C58,0,64.3,5.9,64.3,13.7
		c0,0.9-0.1,2.2-0.1,2.6H42.2L42.2,16.3z"/>
	<path class="st1" d="M82,4.7c-5.2,0-8.9,4.5-8.9,9.5c0,5.4,4,9.5,9,9.5c4.7,0,9-3.8,9-9.4C91.1,9.4,87.4,4.7,82,4.7z M68.2,0.8h4.6
		v4.1h0.1c2.4-3.5,6-4.8,9.4-4.8c9,0,13.8,7.3,13.8,14.5c0,6.8-5,13.7-13.4,13.7c-5.6,0-8.3-2.9-9.3-4.5h-0.1v12.8h-5L68.2,0.8
		L68.2,0.8z M112.6,4.7c-6.1,0-9.1,5.4-9.1,9.6c0,4.8,3.8,9.4,9.1,9.4c5.2,0,9.3-4.3,9.3-9.4C121.9,8.5,117.8,4.7,112.6,4.7
		L112.6,4.7z M121.8,27.6v-4.2h-0.1c-1.9,3.3-5.4,4.8-9,4.8c-9,0-14.1-6.9-14.1-14c0-6.5,4.6-14.2,14.1-14.2c3.7,0,7.1,1.5,9,4.5
		h0.1V0.8h5v26.8H121.8L121.8,27.6z M141.1,36.5h-5.2l3.9-9.5L129.2,0.8h5.4l7.8,20.8l8-20.8h5.4L141.1,36.5"/>
	<path class="st2" d="M81.6,42.7c-0.3,0-0.5,0.2-0.5,0.5v3.5h9.1l-4.1-4H81.6 M90.6,47.8c0-0.3-0.2-0.5-0.5-0.5l0,0h-3.4v9.2
		l3.9-4.2V47.8 M85.6,56.8c0.3,0,0.5-0.2,0.5-0.5v-3.5H77l4.1,4H85.6 M76.7,51.7c0,0.3,0.2,0.5,0.5,0.5h3.4V43l-3.9,4.2V51.7
		 M35,44.4v4.2h-5.8v-4.2h-2.1v10.7h2.1v-4.6H35v4.6h2.1V44.4H35 M63.2,44.4v10.7h9.3l-1.2-1.9h-6v-2.7h5.8v-1.8h-5.8v-2.4h6
		l1.2-1.8L63.2,44.4 M19.1,44.4c-2.2,0-3.3,1.4-3.3,3.3v4c0,2.3,1.4,3.4,3.3,3.4h6.7l-1.2-1.9h-5c-1.1,0-1.5-0.4-1.5-1.6V48
		c0-1.2,0.4-1.6,1.6-1.6h5.1l1.2-1.9L19.1,44.4 M54,44.4c-1.3,0-2.6,0.8-2.6,2.8v0.5c0,2.1,1.3,2.9,2.5,2.9h4.4
		c0.5,0,0.8,0.1,0.8,0.9v0.9c0,0.7-0.4,0.9-0.8,0.9h-5.8l-1.2,1.9h7.2c1.7,0,2.9-0.9,2.9-2.9v-0.7c0-1.9-1.1-2.8-2.8-2.8h-4.2
		c-0.5,0-0.8-0.1-0.8-0.8v-0.7c0-0.6,0.2-0.8,0.8-0.8H60l1.2-1.8L54,44.4 M44.4,46.6l1.9,4.4h-3.8L44.4,46.6z M43.2,44.4l-5,10.7
		h2.4l1-2.2h5.4l1,2.2h2.4l-5-10.7H43.2L43.2,44.4z M6.7,53c0.6,0,1.2-0.2,1.5-0.5c0.4-0.4,0.6-0.9,0.6-1.5v-0.6h-1
		c-0.8,0-1.4,0.2-1.8,0.4c-0.4,0.2-0.5,0.6-0.5,1.1c0,0.4,0.1,0.7,0.3,0.9C6,52.9,6.3,53,6.7,53L6.7,53z M9.1,53.7l-0.2-1l0,0
		c-0.3,0.4-0.7,0.7-1,0.9c-0.3,0.2-0.8,0.2-1.3,0.2c-0.7,0-1.2-0.2-1.6-0.5c-0.4-0.4-0.6-0.9-0.6-1.5c0-1.4,1.1-2.1,3.3-2.2h1.2
		v-0.4c0-0.5-0.1-0.9-0.3-1.2c-0.2-0.3-0.6-0.4-1.1-0.4c-0.6,0-1.2,0.2-1.9,0.5l-0.5-0.8c0.3-0.2,0.7-0.3,1.1-0.4
		c0.4-0.1,0.8-0.2,1.2-0.2c0.8,0,1.4,0.2,1.8,0.5c0.4,0.4,0.6,0.9,0.6,1.8v4.7H9.1L9.1,53.7z M98.7,53.8c-1,0-1.8-0.3-2.3-0.9
		s-0.8-1.5-0.8-2.6c0-1.2,0.3-2,0.8-2.7c0.6-0.6,1.3-0.9,2.4-0.9c0.3,0,0.7,0,1,0.1s0.6,0.2,0.8,0.3l-0.3,0.9
		c-0.2-0.1-0.5-0.2-0.8-0.2c-0.2-0.1-0.5-0.1-0.7-0.1c-1.4,0-2.1,0.9-2.1,2.7c0,0.8,0.2,1.5,0.5,2s0.8,0.7,1.5,0.7
		c0.6,0,1.2-0.1,1.8-0.4v0.9C100,53.7,99.4,53.8,98.7,53.8 M102.6,50.2c0,0.9,0.2,1.6,0.5,2c0.4,0.5,0.9,0.7,1.5,0.7
		s1.2-0.2,1.5-0.7c0.4-0.5,0.5-1.1,0.5-2s-0.2-1.5-0.5-2c-0.4-0.5-0.9-0.7-1.6-0.7c-0.7,0-1.2,0.2-1.5,0.7
		C102.8,48.7,102.6,49.3,102.6,50.2L102.6,50.2z M107.9,50.2c0,1.1-0.3,2-0.8,2.6c-0.6,0.6-1.3,0.9-2.3,0.9c-0.6,0-1.2-0.1-1.6-0.4
		c-0.5-0.3-0.9-0.7-1.1-1.2c-0.3-0.5-0.4-1.2-0.4-1.9c0-1.1,0.3-2,0.8-2.6c0.6-0.6,1.3-0.9,2.3-0.9s1.7,0.3,2.3,1
		C107.6,48.3,107.9,49.1,107.9,50.2L107.9,50.2z"/>
	<g transform="translate(137.341 73.55)">
		<path class="st2" d="M-19-19.9v-4.4c0-0.5-0.1-1-0.4-1.2c-0.2-0.4-0.6-0.5-1.1-0.5c-0.6,0-1.1,0.2-1.4,0.6c-0.3,0.4-0.5,1-0.5,1.7
			v3.9h-1v-4.5c0-0.5-0.1-1-0.3-1.2c-0.3-0.4-0.6-0.5-1.1-0.5c-0.6,0-1.1,0.2-1.4,0.6s-0.5,1-0.5,1.9v3.6h-1v-6.9h0.8l0.2,0.9h0.1
			c0.1-0.3,0.4-0.5,0.7-0.7c0.4-0.2,0.8-0.3,1.2-0.3c1.1,0,1.8,0.4,2.1,1.2h0.1c0.2-0.4,0.5-0.7,0.9-0.9c0.4-0.2,0.8-0.3,1.3-0.3
			c0.8,0,1.4,0.2,1.7,0.6c0.4,0.4,0.6,1,0.6,1.9v4.5H-19 M-12.9-26c-0.7,0-1.2,0.2-1.5,0.6s-0.5,1-0.5,1.9v0.2c0,1,0.2,1.7,0.5,2.1
			c0.3,0.4,0.8,0.6,1.5,0.6c0.6,0,1.1-0.2,1.4-0.7s0.5-1.2,0.5-2c0-0.9-0.2-1.5-0.5-2S-12.3-26-12.9-26z M-12.8-19.7
			c-0.4,0-0.9-0.1-1.2-0.2c-0.4-0.2-0.7-0.4-0.9-0.8H-15c0.1,0.4,0.1,0.7,0.1,1.1v2.8h-1v-10h0.8l0.1,0.9h0.1
			c0.3-0.4,0.6-0.7,0.9-0.8c0.4-0.2,0.8-0.3,1.2-0.3c0.9,0,1.6,0.3,2.1,0.9c0.5,0.8,0.8,1.7,0.8,2.8c0,1.1-0.2,2-0.8,2.6
			C-11.3-20.1-11.9-19.7-12.8-19.7z"/>
	</g>
	<path class="st2" d="M130.9,53c0.6,0,1.2-0.2,1.5-0.5c0.4-0.4,0.6-0.9,0.6-1.5v-0.6h-1c-0.8,0-1.4,0.2-1.8,0.4
		c-0.4,0.2-0.5,0.6-0.5,1.1c0,0.4,0.1,0.7,0.3,0.9C130.2,52.9,130.6,53,130.9,53L130.9,53z M133.4,53.7l-0.2-1h-0.1
		c-0.3,0.4-0.7,0.7-1,0.9c-0.3,0.2-0.8,0.2-1.3,0.2c-0.7,0-1.2-0.2-1.6-0.5c-0.4-0.4-0.6-0.9-0.6-1.5c0-1.4,1.1-2.1,3.3-2.2h1.2
		v-0.4c0-0.5-0.1-0.9-0.3-1.2c-0.2-0.3-0.6-0.4-1.1-0.4c-0.6,0-1.2,0.2-1.9,0.5l-0.3-0.8c0.3-0.2,0.7-0.3,1.1-0.4
		c0.4-0.1,0.8-0.2,1.2-0.2c0.8,0,1.4,0.2,1.8,0.5c0.4,0.4,0.6,0.9,0.6,1.8v4.7H133.4L133.4,53.7z"/>
	<g transform="translate(163.734 73.55)">
		<path class="st2" d="M-22.9-19.9v-4.4c0-0.6-0.1-1-0.4-1.3c-0.2-0.3-0.6-0.4-1.2-0.4c-0.7,0-1.2,0.2-1.6,0.6
			c-0.3,0.4-0.5,1-0.5,1.9v3.6h-1v-6.9h0.8l0.2,0.9h0.1c0.2-0.3,0.5-0.5,0.9-0.7c0.4-0.2,0.8-0.3,1.3-0.3c0.8,0,1.4,0.2,1.9,0.6
			c0.4,0.4,0.6,1,0.6,1.9v4.5H-22.9 M-20.9-26.8h1.1l1.5,3.9c0.3,0.9,0.5,1.6,0.6,1.9h0.1c0.1-0.2,0.2-0.6,0.3-1.1
			c0.2-0.5,0.7-2.1,1.7-4.8h1.1l-2.9,7.9c-0.3,0.8-0.6,1.3-1,1.7c-0.4,0.3-0.9,0.5-1.4,0.5c-0.3,0-0.6,0-0.9-0.1v-0.8
			c0.2,0.1,0.5,0.1,0.8,0.1c0.7,0,1.2-0.4,1.5-1.2l0.4-1L-20.9-26.8"/>
	</g>
</g>
</svg>
