<svg version="1.1" id="Layer_1" xmlns="http://www.w3.org/2000/svg" x="0" y="0" viewBox="0 0 155.8 56.8" xml:space="preserve"><style>.st2{fill-rule:evenodd;clip-rule:evenodd;fill:#1d1d1b}</style><path d="M27.1 27.6h-2.8l-5.8-18h-.1l-5.8 18H9.9L.1.8h5.3l5.9 17.4h.1L16.9.8h3.3l5.5 17.4h.1L31.6.8h5.3l-9.8 26.8m32.4-15.1c-.2-3.9-3.8-7.8-8.6-7.8s-8.3 3.9-8.6 7.8h17.2zm-17.3 3.8c1.2 5.2 5.4 7.3 8.7 7.3 3.7 0 6.4-2.2 7.6-4.5h5c-2.5 6.9-8.6 9.1-12.8 9.1-7.5 0-13.5-6.5-13.5-14.1 0-8 6.1-14.1 13.6-14.1C58 0 64.3 5.9 64.3 13.7c0 .9-.1 2.2-.1 2.6h-22z" fill-rule="evenodd" clip-rule="evenodd" fill="#5791cd"/><path d="M82 4.7c-5.2 0-8.9 4.5-8.9 9.5 0 5.4 4 9.5 9 9.5 4.7 0 9-3.8 9-9.4 0-4.9-3.7-9.6-9.1-9.6zM68.2.8h4.6v4.1h.1c2.4-3.5 6-4.8 9.4-4.8 9 0 13.8 7.3 13.8 14.5 0 6.8-5 13.7-13.4 13.7-5.6 0-8.3-2.9-9.3-4.5h-.1v12.8h-5L68.2.8zm44.4 3.9c-6.1 0-9.1 5.4-9.1 9.6 0 4.8 3.8 9.4 9.1 9.4 5.2 0 9.3-4.3 9.3-9.4 0-5.8-4.1-9.6-9.3-9.6zm9.2 22.9v-4.2h-.1c-1.9 3.3-5.4 4.8-9 4.8-9 0-14.1-6.9-14.1-14 0-6.5 4.6-14.2 14.1-14.2 3.7 0 7.1 1.5 9 4.5h.1V.8h5v26.8h-5zm19.3 8.9h-5.2l3.9-9.5L129.2.8h5.4l7.8 20.8 8-20.8h5.4l-14.7 35.7" fill-rule="evenodd" clip-rule="evenodd" fill="#34a736"/><path class="st2" d="M81.6 42.7c-.3 0-.5.2-.5.5v3.5h9.1l-4.1-4h-4.5m9 5.1c0-.3-.2-.5-.5-.5h-3.4v9.2l3.9-4.2v-4.5m-5 9c.3 0 .5-.2.5-.5v-3.5H77l4.1 4h4.5m-8.9-5.1c0 .3.2.5.5.5h3.4V43l-3.9 4.2v4.5M35 44.4v4.2h-5.8v-4.2h-2.1v10.7h2.1v-4.6H35v4.6h2.1V44.4H35m28.2 0v10.7h9.3l-1.2-1.9h-6v-2.7h5.8v-1.8h-5.8v-2.4h6l1.2-1.8-9.3-.1m-44.1 0c-2.2 0-3.3 1.4-3.3 3.3v4c0 2.3 1.4 3.4 3.3 3.4h6.7l-1.2-1.9h-5c-1.1 0-1.5-.4-1.5-1.6V48c0-1.2.4-1.6 1.6-1.6h5.1l1.2-1.9-6.9-.1m34.9 0c-1.3 0-2.6.8-2.6 2.8v.5c0 2.1 1.3 2.9 2.5 2.9h4.4c.5 0 .8.1.8.9v.9c0 .7-.4.9-.8.9h-5.8l-1.2 1.9h7.2c1.7 0 2.9-.9 2.9-2.9v-.7c0-1.9-1.1-2.8-2.8-2.8h-4.2c-.5 0-.8-.1-.8-.8v-.7c0-.6.2-.8.8-.8H60l1.2-1.8-7.2-.3m-9.6 2.2l1.9 4.4h-3.8l1.9-4.4zm-1.2-2.2l-5 10.7h2.4l1-2.2H47l1 2.2h2.4l-5-10.7h-2.2zM6.7 53c.6 0 1.2-.2 1.5-.5.4-.4.6-.9.6-1.5v-.6h-1c-.8 0-1.4.2-1.8.4-.4.2-.5.6-.5 1.1 0 .4.1.7.3.9.2.1.5.2.9.2zm2.4.7l-.2-1c-.3.4-.7.7-1 .9-.3.2-.8.2-1.3.2-.7 0-1.2-.2-1.6-.5-.4-.4-.6-.9-.6-1.5 0-1.4 1.1-2.1 3.3-2.2h1.2v-.4c0-.5-.1-.9-.3-1.2-.2-.3-.6-.4-1.1-.4-.6 0-1.2.2-1.9.5l-.5-.8c.3-.2.7-.3 1.1-.4.4-.1.8-.2 1.2-.2.8 0 1.4.2 1.8.5.4.4.6.9.6 1.8v4.7h-.7zm89.6.1c-1 0-1.8-.3-2.3-.9s-.8-1.5-.8-2.6c0-1.2.3-2 .8-2.7.6-.6 1.3-.9 2.4-.9.3 0 .7 0 1 .1s.6.2.8.3l-.3.9c-.2-.1-.5-.2-.8-.2-.2-.1-.5-.1-.7-.1-1.4 0-2.1.9-2.1 2.7 0 .8.2 1.5.5 2s.8.7 1.5.7c.6 0 1.2-.1 1.8-.4v.9c-.5.1-1.1.2-1.8.2m3.9-3.6c0 .9.2 1.6.5 2 .4.5.9.7 1.5.7s1.2-.2 1.5-.7c.4-.5.5-1.1.5-2s-.2-1.5-.5-2c-.4-.5-.9-.7-1.6-.7-.7 0-1.2.2-1.5.7-.2.5-.4 1.1-.4 2zm5.3 0c0 1.1-.3 2-.8 2.6-.6.6-1.3.9-2.3.9-.6 0-1.2-.1-1.6-.4-.5-.3-.9-.7-1.1-1.2-.3-.5-.4-1.2-.4-1.9 0-1.1.3-2 .8-2.6.6-.6 1.3-.9 2.3-.9s1.7.3 2.3 1c.5.6.8 1.4.8 2.5z"/><path class="st2" d="M-19-19.9v-4.4c0-.5-.1-1-.4-1.2-.2-.4-.6-.5-1.1-.5-.6 0-1.1.2-1.4.6-.3.4-.5 1-.5 1.7v3.9h-1v-4.5c0-.5-.1-1-.3-1.2-.3-.4-.6-.5-1.1-.5-.6 0-1.1.2-1.4.6s-.5 1-.5 1.9v3.6h-1v-6.9h.8l.2.9h.1c.1-.3.4-.5.7-.7.4-.2.8-.3 1.2-.3 1.1 0 1.8.4 2.1 1.2h.1c.2-.4.5-.7.9-.9.4-.2.8-.3 1.3-.3.8 0 1.4.2 1.7.6.4.4.6 1 .6 1.9v4.5h-1m6.1-6.1c-.7 0-1.2.2-1.5.6s-.5 1-.5 1.9v.2c0 1 .2 1.7.5 2.1.3.4.8.6 1.5.6.6 0 1.1-.2 1.4-.7s.5-1.2.5-2c0-.9-.2-1.5-.5-2s-.8-.7-1.4-.7zm.1 6.3c-.4 0-.9-.1-1.2-.2-.4-.2-.7-.4-.9-.8h-.1c.1.4.1.7.1 1.1v2.8h-1v-10h.8l.1.9h.1c.3-.4.6-.7.9-.8.4-.2.8-.3 1.2-.3.9 0 1.6.3 2.1.9.5.8.8 1.7.8 2.8 0 1.1-.2 2-.8 2.6-.6.6-1.2 1-2.1 1z" transform="translate(137.341 73.55)"/><path class="st2" d="M130.9 53c.6 0 1.2-.2 1.5-.5.4-.4.6-.9.6-1.5v-.6h-1c-.8 0-1.4.2-1.8.4-.4.2-.5.6-.5 1.1 0 .4.1.7.3.9.2.1.6.2.9.2zm2.5.7l-.2-1h-.1c-.3.4-.7.7-1 .9-.3.2-.8.2-1.3.2-.7 0-1.2-.2-1.6-.5-.4-.4-.6-.9-.6-1.5 0-1.4 1.1-2.1 3.3-2.2h1.2v-.4c0-.5-.1-.9-.3-1.2-.2-.3-.6-.4-1.1-.4-.6 0-1.2.2-1.9.5l-.3-.8c.3-.2.7-.3 1.1-.4.4-.1.8-.2 1.2-.2.8 0 1.4.2 1.8.5.4.4.6.9.6 1.8v4.7h-.8z"/><path class="st2" d="M-22.9-19.9v-4.4c0-.6-.1-1-.4-1.3-.2-.3-.6-.4-1.2-.4-.7 0-1.2.2-1.6.6-.3.4-.5 1-.5 1.9v3.6h-1v-6.9h.8l.2.9h.1c.2-.3.5-.5.9-.7.4-.2.8-.3 1.3-.3.8 0 1.4.2 1.9.6.4.4.6 1 .6 1.9v4.5h-1.1m2-6.9h1.1l1.5 3.9c.3.9.5 1.6.6 1.9h.1c.1-.2.2-.6.3-1.1.2-.5.7-2.1 1.7-4.8h1.1l-2.9 7.9c-.3.8-.6 1.3-1 1.7-.4.3-.9.5-1.4.5-.3 0-.6 0-.9-.1v-.8c.2.1.5.1.8.1.7 0 1.2-.4 1.5-1.2l.4-1-2.9-7" transform="translate(163.734 73.55)"/></svg>